<?xml version="1.0" encoding="UTF-8"?>
<svg id="Layer_1" data-name="Layer 1" xmlns="http://www.w3.org/2000/svg" viewBox="0 0 361.25 361.25">
  <defs>
    <style>
      .cls-1 {
        fill: #447df3;
      }

      .cls-2 {
        fill: #fff;
      }
    </style>
  </defs>
  <path class="cls-1" d="M36.18,0h288.89c19.97,0,36.18,16.21,36.18,36.18v288.89c0,19.97-16.21,36.18-36.18,36.18H36.18c-19.97,0-36.18-16.21-36.18-36.18V36.18C0,16.21,16.21,0,36.18,0Z"/>
  <g>
    <path class="cls-2" d="M309.87,125.43V44.96l-129.24,126.59L51.38,44.96v80.47l129.24,126.59,110.33-108.07v85.41c-3.95,1.84-6.69,5.85-6.69,10.5,0,4.94,3.1,9.16,7.45,10.83-2.65,17.22-5.3,34.45-7.94,51.67h25.22c-3-17.22-6.01-34.45-9.01-51.67,4.36-1.66,7.45-5.88,7.45-10.83,0-4.65-2.74-8.66-6.69-10.5v-95l9.12-8.93Z"/>
    <path class="cls-2" d="M71.56,177.17c-5.51-4.23-11.01-8.46-16.52-12.68v127.17c15.71,9.07,31.41,18.15,47.12,27.22-10.2-11.51-20.4-23.02-30.6-34.53v-107.18Z"/>
    <path class="cls-2" d="M141.66,231c-4.43,2.43-9.51,3.82-14.91,3.82-17.21,0-31.2-14-31.2-31.2,0-2.44.29-4.81.82-7.1-5.26-3.89-10.51-7.78-15.77-11.67-2.36,5.79-3.67,12.13-3.67,18.77,0,27.51,22.3,49.82,49.82,49.82,11.5,0,22.08-3.91,30.51-10.45-5.2-3.99-10.4-7.99-15.6-11.98Z"/>
    <path class="cls-2" d="M264.87,196.52c.53,2.28.82,4.65.82,7.1,0,17.21-14,31.2-31.2,31.2-5.4,0-10.47-1.4-14.91-3.82-5.2,3.99-10.4,7.99-15.6,11.98,8.43,6.55,19.01,10.45,30.51,10.45,27.51,0,49.82-22.3,49.82-49.82,0-6.64-1.31-12.97-3.67-18.77-5.26,3.89-10.51,7.78-15.77,11.67Z"/>
    <path class="cls-2" d="M107.64,193.81c-1.55,2.99-2.44,6.38-2.44,9.98,0,12.02,9.75,21.77,21.77,21.77,4.29,0,8.28-1.26,11.65-3.4-10.33-9.45-20.65-18.9-30.98-28.35Z"/>
    <path class="cls-2" d="M253.61,193.81c1.55,2.99,2.44,6.38,2.44,9.98,0,12.02-9.75,21.77-21.77,21.77-4.29,0-8.28-1.26-11.65-3.4,10.33-9.45,20.65-18.9,30.98-28.35Z"/>
    <path class="cls-2" d="M196.43,248.78c-5.27,4.05-10.54,8.09-15.81,12.14h0s0,0,0,0c-5.27-4.05-10.54-8.09-15.81-12.14-1.12,8.48-2.25,16.95-3.37,25.43,6.39,11.06,12.79,22.12,19.18,33.17,6.39-11.06,12.79-22.12,19.18-33.17-1.12-8.48-2.25-16.95-3.37-25.43Z"/>
  </g>
</svg>